{"title":"The.Rules.of.the.Game.1939.720p.Bluray.x264.anoXmous","uid":6936911,"size":733275929,"categoryP":"video","categoryS":"hd___movies","magnet":"?xt=urn:btih:519ed61c6e1de7a096eae66a0435d1d4078af5c2&amp;dn=The.Rules.of.the.Game.1939.720p.Bluray.x264.anoXmous&amp;tr=udp%3A%2F%2Ftracker.openbittorrent.com%3A80&amp;tr=udp%3A%2F%2Fopen.demonii.com%3A1337&amp;tr=udp%3A%2F%2Ftracker.coppersurfer.tk%3A6969&amp;tr=udp%3A%2F%2Fexodus.desync.com%3A6969","seeders":7,"leechers":1,"uploader":"anoXmous","files":-1,"time":1325859192,"description":"The.Rules.of.the.Game.1939.720p.Bluray.x264.anoXmous\n\nFormat                           : MPEG-4\nFormat profile                   : Base Media\nCodec ID                         : isom\nFile size                        : 699 MiB\nDuration                         : 1h 46mn\nOverall bit rate mode            : Variable\nOverall bit rate                 : 917 Kbps\n\n\nVideo\nID                               : 1\nFormat                           : AVC\nFormat/Info                      : Advanced Video Codec\nFormat profile                   : &lt;a class=&quot;__cf_email__&quot; href=&quot;/cdn-cgi/l/email-protection&quot; data-cfemail=&quot;652d0c020d2529514b54&quot;&gt;[email&amp;#160;protected]&lt;/a&gt;&lt;script cf-hash='f9e31' type=&quot;text/javascript&quot;&gt;\n/* &lt;![CDATA[ */!function(){try{var t=&quot;currentScript&quot;in document?document.currentScript:function(){for(var t=document.getElementsByTagName(&quot;script&quot;),e=t.length;e--;)if(t[e].getAttribute(&quot;cf-hash&quot;))return t[e]}();if(t&amp;&amp;t.previousSibling){var e,r,n,i,c=t.previousSibling,a=c.getAttribute(&quot;data-cfemail&quot;);if(a){for(e=&quot;&quot;,r=parseInt(a.substr(0,2),16),n=2;a.length-n;n+=2)i=parseInt(a.substr(n,2),16)^r,e+=String.fromCharCode(i);e=document.createTextNode(e),c.parentNode.replaceChild(e,c)}}}catch(u){}}();/* ]]&gt; */&lt;/script&gt;\nFormat settings, CABAC           : Yes\nFormat settings, ReFrames        : 4 frames\nCodec ID                         : avc1\nCodec ID/Info                    : Advanced Video Coding\nDuration                         : 1h 46mn\nBit rate                         : 879 Kbps\nMaximum bit rate                 : 3 474 Kbps\nWidth                            : 1 280 pixels\nHeight                           : 966 pixels\nDisplay aspect ratio             : 4:3\nFrame rate mode                  : Constant\nFrame rate                       : 23.976 fps\nColor space                      : YUV\nChroma subsampling               : 4:2:0\nBit depth                        : 8 bits\nScan type                        : Progressive\nBits/(Pixel*Frame)               : 0.030\nStream size                      : 670 MiB (96%)\nWriting library                  : x264 core 120 r2120 0c7dab9\n\n\nAudio\nID                               : 2\nFormat                           : AAC\nFormat/Info                      : Advanced Audio Codec\nFormat profile                   : LC\nCodec ID                         : 40\nDuration                         : 1h 46mn\nBit rate mode                    : Variable\nBit rate                         : 35.4 Kbps\nMaximum bit rate                 : 43.7 Kbps\nChannel(s)                       : 1 channel\nChannel positions                : Front: C\nSampling rate                    : 48.0 KHz\nCompression mode                 : Lossy\nStream size                      : 27.0 MiB (4%)\n\n\n                  SUB            :\n\t\t\t\t  \nThe.Rules.of.the.Game.1939.720p.Bluray.x264.anoXmous_eng.srt\n &lt;a href=&quot;\nhttp://www.imdb.com/title/tt0031885/&quot; rel=&quot;nofollow&quot; target=&quot;_NEW&quot;&gt;\nhttp://www.imdb.com/title/tt0031885/&lt;/a&gt;\n\nThis work very fine with PSP and XBOX\n","torrent":{"xt":"urn:btih:519ed61c6e1de7a096eae66a0435d1d4078af5c2","amp;dn":"The.Rules.of.the.Game.1939.720p.Bluray.x264.anoXmous","amp;tr":["udp%3A%2F%2Ftracker.openbittorrent.com%3A80","udp%3A%2F%2Fopen.demonii.com%3A1337","udp%3A%2F%2Ftracker.coppersurfer.tk%3A6969","udp%3A%2F%2Fexodus.desync.com%3A6969"],"infoHash":"519ed61c6e1de7a096eae66a0435d1d4078af5c2","infoHashBuffer":{"type":"Buffer","data":[81,158,214,28,110,29,231,160,150,234,230,106,4,53,209,212,7,138,245,194]},"announce":[],"urlList":[]}}